<svg width="101" height="110" viewBox="0 0 101 110" fill="none" xmlns="http://www.w3.org/2000/svg">
<rect x="1" width="100" height="110" fill="#D9D9D9"/>
<path d="M18.2489 62.6307V60.0227L29.7546 41.8182H31.6467V45.858H30.3682L21.6751 59.6136V59.8182H37.1694V62.6307H18.2489ZM30.5728 68V61.8381V60.6236V41.8182H33.5898V68H30.5728ZM50.5 68.358C48.5739 68.358 46.9332 67.8338 45.5781 66.7855C44.223 65.7287 43.1875 64.1989 42.4716 62.196C41.7557 60.1847 41.3977 57.7557 41.3977 54.9091C41.3977 52.0795 41.7557 49.6634 42.4716 47.6605C43.196 45.6491 44.2358 44.1151 45.5909 43.0582C46.9545 41.9929 48.5909 41.4602 50.5 41.4602C52.4091 41.4602 54.0412 41.9929 55.3963 43.0582C56.7599 44.1151 57.7997 45.6491 58.5156 47.6605C59.2401 49.6634 59.6023 52.0795 59.6023 54.9091C59.6023 57.7557 59.2443 60.1847 58.5284 62.196C57.8125 64.1989 56.777 65.7287 55.4219 66.7855C54.0668 67.8338 52.4261 68.358 50.5 68.358ZM50.5 65.5455C52.4091 65.5455 53.892 64.625 54.9489 62.7841C56.0057 60.9432 56.5341 58.3182 56.5341 54.9091C56.5341 52.642 56.2912 50.7116 55.8054 49.1179C55.3281 47.5241 54.6378 46.3097 53.7344 45.4744C52.8395 44.6392 51.7614 44.2216 50.5 44.2216C48.608 44.2216 47.1293 45.1548 46.0639 47.0213C44.9986 48.8793 44.4659 51.5085 44.4659 54.9091C44.4659 57.1761 44.7045 59.1023 45.1818 60.6875C45.6591 62.2727 46.3452 63.4787 47.2401 64.3054C48.1435 65.1321 49.2301 65.5455 50.5 65.5455ZM63.8466 62.6307V60.0227L75.3523 41.8182H77.2443V45.858H75.9659L67.2727 59.6136V59.8182H82.767V62.6307H63.8466ZM76.1705 68V61.8381V60.6236V41.8182H79.1875V68H76.1705Z" fill="#5B5B5B"/>
</svg>
