<svg width="200" height="200" viewBox="0 0 200 200" fill="none" xmlns="http://www.w3.org/2000/svg">
<rect width="200" height="200" fill="#F5F5F5"/>
<rect width="200" height="200" fill="#3F2DE6"/>
<rect width="200" height="200" fill="url(#paint0_linear_0_1)"/>
<path d="M83.7501 69.5937H72.0626C71.7293 67.6771 71.1147 65.9792 70.2189 64.5C69.323 63 68.2085 61.7292 66.8751 60.6875C65.5418 59.6458 64.021 58.8646 62.3126 58.3437C60.6251 57.8021 58.8022 57.5313 56.8439 57.5313C53.3647 57.5313 50.2814 58.4062 47.5939 60.1562C44.9064 61.8854 42.8022 64.4271 41.2814 67.7812C39.7605 71.1146 39.0001 75.1875 39.0001 80C39.0001 84.8958 39.7605 89.0208 41.2814 92.375C42.823 95.7083 44.9272 98.2292 47.5939 99.9375C50.2814 101.625 53.3543 102.469 56.8126 102.469C58.7293 102.469 60.521 102.219 62.1876 101.719C63.8751 101.198 65.3855 100.437 66.7189 99.4375C68.073 98.4375 69.2085 97.2083 70.1251 95.75C71.0626 94.2917 71.7085 92.625 72.0626 90.75L83.7501 90.8125C83.3126 93.8542 82.3647 96.7083 80.9064 99.375C79.4689 102.042 77.5835 104.396 75.2501 106.438C72.9168 108.458 70.1876 110.042 67.0626 111.187C63.9376 112.312 60.4689 112.875 56.6564 112.875C51.0314 112.875 46.0105 111.573 41.5939 108.969C37.1772 106.365 33.698 102.604 31.1564 97.6875C28.6147 92.7708 27.3439 86.875 27.3439 80C27.3439 73.1042 28.6251 67.2083 31.1876 62.3125C33.7501 57.3958 37.2397 53.6354 41.6564 51.0312C46.073 48.4271 51.073 47.125 56.6564 47.125C60.2189 47.125 63.5314 47.625 66.5939 48.625C69.6564 49.625 72.3855 51.0937 74.7814 53.0312C77.1772 54.9479 79.146 57.3021 80.6876 60.0938C82.2501 62.8646 83.271 66.0313 83.7501 69.5937ZM100.836 112.688C98.9402 112.688 97.3152 112.021 95.9611 110.687C94.6069 109.354 93.9402 107.729 93.9611 105.812C93.9402 103.937 94.6069 102.333 95.9611 101C97.3152 99.6667 98.9402 99 100.836 99C102.669 99 104.263 99.6667 105.617 101C106.992 102.333 107.69 103.937 107.711 105.812C107.69 107.083 107.357 108.24 106.711 109.281C106.086 110.323 105.253 111.156 104.211 111.781C103.19 112.385 102.065 112.688 100.836 112.688ZM141.578 112H119.891V48H142.016C148.37 48 153.828 49.2812 158.391 51.8438C162.974 54.3854 166.495 58.0417 168.953 62.8125C171.412 67.5833 172.641 73.2917 172.641 79.9375C172.641 86.6042 171.401 92.3333 168.922 97.125C166.464 101.917 162.912 105.594 158.266 108.156C153.641 110.719 148.078 112 141.578 112ZM131.484 101.969H141.016C145.474 101.969 149.193 101.156 152.172 99.5312C155.151 97.8854 157.391 95.4375 158.891 92.1875C160.391 88.9167 161.141 84.8333 161.141 79.9375C161.141 75.0417 160.391 70.9792 158.891 67.75C157.391 64.5 155.172 62.0729 152.234 60.4688C149.318 58.8438 145.693 58.0312 141.359 58.0312H131.484V101.969Z" fill="white"/>
<path d="M135.293 156.97L58.5358 136.845L58.4713 126.938L135.229 147.064L135.293 156.97Z" fill="white"/>
<defs>
<linearGradient id="paint0_linear_0_1" x1="194" y1="2.49998" x2="-1.17719e-05" y2="200" gradientUnits="userSpaceOnUse">
<stop stop-color="#E518FC"/>
<stop offset="1" stop-color="#E518FC" stop-opacity="0"/>
</linearGradient>
</defs>
</svg>
